<?xml version="1.0" encoding="UTF-8"?>
<!-- Generator: visioncortex VTracer 0.6.12 -->
<svg version="1.1" xmlns="http://www.w3.org/2000/svg" width="1402" height="1122">
<path d="M0 0 C462.66 0 925.32 0 1402 0 C1402 370.26 1402 740.52 1402 1122 C939.34 1122 476.68 1122 0 1122 C0 751.74 0 381.48 0 0 Z M1002 557 C1003 559 1003 559 1003 559 Z M1037 708 C1038 710 1038 710 1038 710 Z M1013 930 C1006.771 937.652 1006.666 947.071 1006.75 956.562 C1006.742 957.444 1006.735 958.325 1006.727 959.232 C1006.754 968.681 1007.878 976.428 1014.465 983.594 C1020.262 989.159 1027.073 991.076 1035 991.375 C1043.448 991.044 1050.14 988.859 1056.309 982.965 C1063.198 974.962 1063.224 965.968 1063.312 955.875 C1063.342 954.797 1063.371 953.72 1063.4 952.609 C1063.468 943.942 1062.048 935.636 1056.688 928.562 C1049.018 921.25 1041.161 920.54 1031 920.719 C1023.371 921.075 1017.882 924.142 1013 930 Z M1088.188 926.375 C1083.472 932.033 1082.451 935.816 1082.648 943.121 C1083.265 948.171 1085.599 950.75 1089.279 954.033 C1092.157 956.114 1094.449 957.006 1097.852 957.965 C1098.95 958.29 1100.048 958.616 1101.18 958.951 C1103.483 959.61 1105.787 960.264 1108.094 960.912 C1109.189 961.239 1110.285 961.566 1111.414 961.902 C1112.414 962.186 1113.414 962.469 1114.444 962.761 C1117.656 964.318 1118.575 965.765 1120 969 C1119.883 972.398 1119.685 974.896 1117.875 977.812 C1111.896 981.599 1105.737 981.399 1099 980 C1096.368 979.038 1095.273 978.419 1093.734 976.055 C1093.41 975.335 1093.085 974.616 1092.75 973.875 C1092.415 973.151 1092.08 972.426 1091.734 971.68 C1091.492 971.125 1091.25 970.571 1091 970 C1084.375 969.875 1084.375 969.875 1081 971 C1081.42 976.601 1083.345 980.801 1087 985 C1094.965 990.955 1103.707 991.951 1113.367 990.691 C1120.71 989.295 1125.685 986.232 1130 980 C1132.067 973.798 1132.072 966.5 1129.5 960.5 C1123.536 954.536 1116.776 952.007 1108.75 949.875 C1106.993 949.401 1105.237 948.92 1103.484 948.43 C1102.718 948.226 1101.952 948.022 1101.163 947.812 C1098.691 946.884 1096.98 945.74 1095 944 C1093.918 941.064 1093.9 939.419 1094.625 936.375 C1096.466 933.196 1097.541 932.341 1101 931 C1105.899 930.462 1110.355 930.383 1115 932.125 C1117.497 934.466 1118.677 936.867 1120 940 C1126.625 940.125 1126.625 940.125 1130 939 C1129.877 933.089 1128.09 929.985 1123.996 925.734 C1117.709 920.272 1110.635 920.53 1102.57 920.715 C1096.634 921.189 1092.821 922.462 1088.188 926.375 Z M286 922 C286 944.11 286 966.22 286 989 C288.287 990.144 289.593 990.103 292.125 990.062 C293.404 990.042 294.683 990.021 296 990 C296.897 986.932 297.117 984.207 297.098 981.016 C297.094 980.081 297.091 979.146 297.088 978.184 C297.08 977.216 297.071 976.247 297.062 975.25 C297.058 974.266 297.053 973.283 297.049 972.27 C297.037 969.846 297.021 967.423 297 965 C298.256 965.035 299.511 965.07 300.805 965.105 C320.53 965.492 320.53 965.492 328.938 960.125 C334.633 954.257 335.303 948.628 335.219 940.754 C334.757 934.946 332.231 930.014 328 926 C318 922 318 922 286 922 Z M357 922 C356.977 930.718 356.959 939.437 356.948 948.155 C356.943 952.203 356.936 956.251 356.925 960.299 C356.914 964.202 356.908 968.106 356.905 972.009 C356.903 973.501 356.9 974.994 356.894 976.486 C356.887 978.569 356.886 980.653 356.886 982.736 C356.884 983.924 356.882 985.112 356.88 986.336 C357 989 357 989 358 990 C361.091 990.101 364.159 990.14 367.25 990.133 C368.178 990.134 369.107 990.135 370.063 990.136 C372.031 990.136 373.998 990.135 375.965 990.13 C378.987 990.125 382.009 990.13 385.031 990.137 C386.938 990.136 388.844 990.135 390.75 990.133 C391.205 990.134 391.205 990.134 393.509 990.139 C399.885 990.115 399.885 990.115 401 989 C401.071 987.648 401.084 986.292 401.062 984.938 C401.042 983.638 401.021 982.339 401 981 C397.394 979.872 394.029 979.886 390.266 979.902 C388.97 979.906 387.675 979.909 386.34 979.912 C384.977 979.92 383.613 979.929 382.25 979.938 C380.871 979.943 379.492 979.947 378.113 979.951 C374.742 979.963 371.371 979.98 368 980 C368.001 979.644 368.001 979.644 368.007 977.843 C368.027 971.147 368.042 964.452 368.052 957.756 C368.057 954.314 368.064 950.871 368.075 947.428 C368.088 943.474 368.093 939.52 368.098 935.566 C368.103 934.325 368.108 933.083 368.113 931.804 C368.113 930.663 368.113 929.522 368.114 928.346 C368.116 927.336 368.118 926.325 368.12 925.284 C368 923 368 923 367 922 C365.314 921.928 363.625 921.916 361.938 921.938 C361.018 921.947 360.099 921.956 359.152 921.965 C358.442 921.976 357.732 921.988 357 922 Z M417 922 C416.949 928.386 416.914 934.773 416.89 941.159 C416.88 943.329 416.867 945.498 416.849 947.668 C416.825 950.798 416.813 953.928 416.805 957.059 C416.794 958.018 416.784 958.978 416.773 959.967 C416.772 968.432 417.354 976.314 423 983 C430.103 989.582 436.921 991.474 446.48 991.254 C452.955 990.601 459.066 988.261 464 984 C469.845 975.7 470.149 968.001 470.098 958.133 C470.096 957.098 470.095 956.063 470.093 954.997 C470.088 951.706 470.075 948.416 470.062 945.125 C470.057 942.888 470.053 940.651 470.049 938.414 C470.038 932.943 470.021 927.471 470 922 C466.37 922 462.74 922 459 922 C459.005 922.661 459.005 922.661 459.032 926.004 C459.068 930.931 459.091 935.859 459.11 940.787 C459.12 942.915 459.134 945.043 459.151 947.17 C459.175 950.239 459.187 953.307 459.195 956.375 C459.206 957.318 459.216 958.261 459.227 959.233 C459.228 965.595 459.123 972.012 455.312 977.375 C450.222 980.952 445.137 981.412 439.148 980.543 C435.231 979.553 432.139 977.688 429.866 974.32 C428.656 971.079 428.669 968.154 428.586 964.699 C428.567 963.986 428.547 963.272 428.527 962.537 C428.468 960.254 428.421 957.971 428.375 955.688 C428.337 954.195 428.298 952.702 428.258 951.209 C428.109 945.334 427.982 939.462 428.013 933.584 C428.015 933.237 428.015 933.237 428.024 931.476 C428.038 929.57 428.061 927.663 428.084 925.757 C428 923 428 923 427 922 C425.314 921.928 423.625 921.916 421.938 921.938 C421.018 921.947 420.099 921.956 419.152 921.965 C418.442 921.976 417.732 921.988 417 922 Z M489 922 C490.636 931.079 493.95 939.562 497.125 948.188 C497.714 949.798 498.303 951.408 498.892 953.019 C499.771 955.424 500.651 957.83 501.533 960.234 C503.237 964.883 504.903 969.543 506.531 974.219 C506.892 975.246 507.253 976.273 507.625 977.331 C508.276 979.19 508.918 981.052 509.551 982.917 C510.28 984.977 511.128 986.996 512 989 C514.882 989.961 516.699 990.106 519.688 990.062 C520.496 990.053 521.304 990.044 522.137 990.035 C522.752 990.024 523.366 990.012 524 990 C527.074 981.434 530.134 972.863 533.185 964.288 C533.744 962.72 534.303 961.151 534.862 959.583 C536.66 954.535 538.454 949.485 540.241 944.433 C540.83 942.77 541.421 941.107 542.014 939.445 C542.849 937.099 543.679 934.751 544.508 932.402 C544.634 932.05 544.634 932.05 545.273 930.266 C546.289 927.371 547 925.093 547 922 C543.7 922 540.4 922 537 922 C534.281 928.646 531.813 935.305 529.582 942.129 C529.279 943.045 528.977 943.96 528.665 944.904 C527.711 947.789 526.761 950.676 525.812 953.562 C524.552 957.398 523.287 961.233 522.02 965.066 C521.731 965.949 521.442 966.831 521.145 967.74 C520.878 968.548 520.611 969.357 520.335 970.19 C520.101 970.903 519.866 971.617 519.625 972.353 C519 974 519 974 518 975 C516.239 969.863 514.48 964.726 512.72 959.589 C512.124 957.848 511.528 956.107 510.931 954.367 C507.239 943.594 503.579 932.811 500 922 C496.37 922 492.74 922 489 922 Z M569 922 C569 944.44 569 966.88 569 990 C572.3 990 575.6 990 579 990 C579 967.56 579 945.12 579 922 C575.7 922 572.4 922 569 922 Z M623 922 C620.689 928.525 618.377 935.049 616.066 941.574 C615.283 943.786 614.499 945.998 613.716 948.21 C613.338 949.277 612.96 950.344 612.57 951.443 C612.195 952.504 611.819 953.564 611.432 954.656 C610.683 956.773 609.934 958.889 609.186 961.006 C607.505 965.76 605.819 970.512 604.106 975.254 C603.823 976.044 603.54 976.833 603.248 977.646 C602.73 979.088 602.208 980.528 601.682 981.968 C600.668 984.798 600 986.965 600 990 C603.3 990 606.6 990 610 990 C611.98 984.72 613.96 979.44 616 974 C625.24 973.67 634.48 973.34 644 973 C644.165 973.99 644.165 973.99 645 979 C645.613 980.79 646.278 982.563 647 984.312 C647.351 985.175 647.701 986.037 648.062 986.926 C649 989 649 989 650 990 C651.686 990.072 653.375 990.084 655.062 990.062 C655.982 990.053 656.901 990.044 657.848 990.035 C658.558 990.024 659.268 990.012 660 990 C659.424 986.039 658.585 982.459 657.206 978.704 C656.838 977.696 656.471 976.687 656.092 975.648 C655.894 975.111 655.894 975.111 654.887 972.391 C654.681 971.83 654.681 971.83 653.642 968.991 C652.773 966.62 651.901 964.249 651.027 961.88 C649.698 958.279 648.377 954.675 647.057 951.07 C646.209 948.76 645.36 946.45 644.512 944.141 C644.12 943.074 643.728 942.007 643.324 940.907 C640.982 934.562 638.539 928.269 636 922 C631.71 922 627.42 922 623 922 Z M679 922 C678.977 930.718 678.959 939.437 678.948 948.155 C678.943 952.203 678.936 956.251 678.925 960.299 C678.914 964.202 678.908 968.106 678.905 972.009 C678.903 973.501 678.9 974.994 678.894 976.486 C678.887 978.569 678.886 980.653 678.886 982.736 C678.884 983.924 678.882 985.112 678.88 986.336 C679 989 679 989 680 990 C682.97 990 685.94 990 689 990 C689.33 973.5 689.66 957 690 940 C693.63 945.94 697.26 951.88 701 958 C706.125 965.75 706.125 965.75 708.574 969.375 C711.489 973.699 714.282 978.101 717.045 982.522 C718.86 985.388 720.576 987.576 723 990 C725.97 990 728.94 990 732 990 C732 967.56 732 945.12 732 922 C728.7 922 725.4 922 722 922 C721.67 937.84 721.34 953.68 721 970 C717.7 964.72 714.4 959.44 711 954 C706.062 946.562 706.062 946.562 703.562 942.906 C701.674 940.099 699.971 937.23 698.312 934.281 C697.854 933.495 697.395 932.71 696.922 931.9 C696.038 930.38 695.185 928.84 694.369 927.281 C693.047 925.053 692.025 923.624 690 922 C687.288 921.688 687.288 921.688 684.304 921.801 C683.808 921.815 683.808 921.815 681.296 921.888 C680.538 921.925 679.781 921.962 679 922 Z M808 922 C805.528 928.864 803.056 935.729 800.584 942.593 C799.745 944.923 798.907 947.252 798.068 949.582 C797.662 950.708 797.256 951.835 796.838 952.996 C796.437 954.11 796.036 955.223 795.623 956.37 C794.829 958.576 794.036 960.782 793.243 962.989 C791.612 967.532 789.979 972.074 788.302 976.601 C788.182 976.927 788.182 976.927 787.576 978.578 C786.977 980.206 786.372 981.831 785.766 983.457 C785 986 785 986 785 990 C788.05 990.288 790.957 990.412 794 990 C795.875 988.062 795.875 988.062 797 985 C797.275 984.264 797.549 983.528 797.832 982.77 C799.047 979.37 800 976.635 800 973 C804.62 973.165 804.62 973.165 828 974 C830.25 981.437 830.25 981.437 830.931 983.783 C831.516 985.621 831.516 985.621 833 989 C834.938 989.969 834.938 989.969 837 990 C837.619 990.01 837.619 990.01 840.75 990.062 C841.286 990.052 841.286 990.052 844 990 C842.575 982.83 840.436 976.123 837.973 969.246 C837.583 968.146 837.193 967.046 836.792 965.912 C835.554 962.419 834.308 958.928 833.062 955.438 C832.229 953.089 831.397 950.741 830.564 948.393 C824.143 930.298 824.143 930.298 821 922 C816.71 922 812.42 922 808 922 Z M850 922 C850 924.97 850 927.94 850 931 C856.93 931 863.86 931 871 931 C870.995 932.752 870.99 934.504 870.984 936.308 C870.968 942.084 870.957 947.859 870.948 953.635 C870.943 957.138 870.936 960.641 870.925 964.144 C870.912 968.168 870.907 972.191 870.902 976.215 C870.897 977.478 870.892 978.742 870.887 980.044 C870.887 981.205 870.887 982.366 870.886 983.562 C870.885 984.076 870.885 984.076 870.88 986.678 C871 989 871 989 872 990 C873.813 990.133 873.813 990.133 876 990.125 C876.722 990.128 877.444 990.13 878.188 990.133 C880 990 880 990 881 989 C881.094 987.189 881.117 985.375 881.114 983.562 C881.113 982.982 881.113 982.982 881.113 980.044 C881.111 979.412 881.111 979.412 881.098 976.215 C881.096 974.929 881.095 973.643 881.093 972.318 C881.09 968.894 881.08 965.469 881.069 962.045 C881.058 958.553 881.054 955.06 881.049 951.568 C881.038 944.712 881.02 937.856 881 931 C887.93 931 894.86 931 902 931 C902 928.03 902 925.06 902 922 C884.84 922 867.68 922 850 922 Z M922 922 C922 944.44 922 966.88 922 990 C924.97 990 927.94 990 931 990 C931.167 983.486 931.328 976.971 931.482 970.457 C931.536 968.239 931.591 966.022 931.648 963.804 C931.73 960.622 931.805 957.44 931.879 954.258 C931.906 953.262 931.933 952.266 931.961 951.24 C931.981 950.319 932.001 949.398 932.022 948.45 C932.042 947.637 932.062 946.824 932.082 945.987 C932 944 932 944 931 942 C931.66 942 932.32 942 933 942 C933.101 942.528 933.203 943.056 933.307 943.599 C934.215 946.745 935.621 949.483 937.09 952.41 C937.394 953.019 937.699 953.628 938.013 954.255 C938.656 955.537 939.3 956.819 939.947 958.1 C940.935 960.057 941.916 962.018 942.896 963.979 C947.704 973.557 947.704 973.557 950 977 C951.945 977.293 951.945 977.293 954.125 977.188 C955.404 977.126 956.683 977.064 958 977 C958.302 976.391 958.604 975.782 958.915 975.155 C960.316 972.331 961.72 969.509 963.125 966.688 C963.599 965.73 964.074 964.773 964.562 963.787 C967.892 957.106 971.381 950.529 975 944 C975.01 944.562 975.021 945.123 975.031 945.702 C975.139 951.525 975.254 957.348 975.372 963.171 C975.416 965.347 975.457 967.523 975.497 969.698 C975.555 972.819 975.619 975.939 975.684 979.059 C975.7 980.038 975.717 981.017 975.734 982.026 C975.744 982.476 975.744 982.476 975.795 984.756 C975.802 985.154 975.802 985.154 975.842 987.171 C976 989 976 989 977 990 C979.97 990 982.94 990 986 990 C986 967.56 986 945.12 986 922 C982.37 922 978.74 922 975 922 C963.24 944.246 963.24 944.246 958.25 954.812 C957.915 955.516 957.581 956.22 957.236 956.945 C955 961.745 955 961.745 955 964 C954.34 964 953.68 964 953 964 C952.739 963.153 952.478 962.306 952.208 961.434 C950.941 957.831 949.377 954.466 947.664 951.062 C947.343 950.419 947.023 949.776 946.692 949.114 C946.017 947.761 945.34 946.41 944.66 945.06 C943.629 943.009 942.607 940.954 941.586 938.898 C940.925 937.578 940.264 936.258 939.602 934.938 C939.3 934.331 938.999 933.725 938.689 933.1 C937.822 931.385 936.911 929.692 936 928 C935.472 926.867 934.944 925.734 934.4 924.566 C933.608 923.719 932.816 922.873 932 922 C928.7 922 925.4 922 922 922 Z " fill="#000000" transform="translate(0,0)"/>
<path d="M0 0 C3.612 2.52 6.832 5.391 8.312 9.686 C9.19 14.802 8.916 20.074 8.938 25.25 C8.958 26.469 8.979 27.689 9 28.945 C9.003 29.536 9.003 29.536 9.016 32.523 C9.025 33.598 9.034 34.672 9.044 35.779 C8.524 40.297 6.704 43.568 3.938 47.125 C-0.471 50.554 -4.941 51.085 -10.375 50.75 C-15.874 50.04 -19.388 47.999 -23.125 43.875 C-26.543 38.119 -25.535 30.957 -25.562 24.5 C-25.583 23.281 -25.604 22.061 -25.625 20.805 C-25.63 19.624 -25.635 18.443 -25.641 17.227 C-25.65 16.152 -25.659 15.078 -25.669 13.971 C-25.182 9.743 -23.69 6.385 -20.812 3.23 C-14.404 -1.76 -7.717 -2.621 0 0 Z " fill="#000000" transform="translate(1043.3125,931.125)"/>
<path d="M0 0 C3.229 -0.088 6.458 -0.141 9.688 -0.188 C10.144 -0.2 10.144 -0.2 12.451 -0.264 C17.471 -0.318 20.935 -0.306 25 3 C28.298 6.298 28.846 9.395 29 14 C28.48 17.009 27.866 19.562 26 22 C20.469 25.139 15.825 25.384 9.562 25.188 C9.149 25.181 9.149 25.181 7.057 25.146 C5.037 25.111 3.019 25.058 1 25 C-0.279 22.443 -0.113 20.633 -0.098 17.773 C-0.094 16.742 -0.091 15.711 -0.088 14.648 C-0.08 13.568 -0.071 12.488 -0.062 11.375 C-0.058 10.287 -0.053 9.199 -0.049 8.078 C-0.037 5.385 -0.021 2.693 0 0 Z " fill="#000000" transform="translate(296,931)"/>
<path d="M0 0 C1.789 3.324 2.982 6.715 4.164 10.297 C4.564 11.502 4.963 12.707 5.375 13.949 C5.792 15.216 6.208 16.483 6.625 17.75 C7.049 19.033 7.474 20.315 7.898 21.598 C8.935 24.731 9.968 27.865 11 31 C4.07 31 -2.86 31 -10 31 C-7.747 20.864 -7.747 20.864 -6.309 16.562 C-6.156 16.106 -6.156 16.106 -5.385 13.793 C-5.072 12.871 -4.76 11.95 -4.438 11 C-4.279 10.524 -4.279 10.524 -3.479 8.113 C-1.134 1.134 -1.134 1.134 0 0 Z " fill="#000000" transform="translate(814,933)"/>
<path d="M0 0 C3.148 1.574 3.28 4.175 4.383 7.441 C4.602 8.084 4.821 8.726 5.047 9.388 C5.747 11.444 6.436 13.503 7.125 15.562 C7.597 16.955 8.07 18.348 8.543 19.74 C9.704 23.157 10.852 26.578 12 30 C4.74 30 -2.52 30 -10 30 C-7.463 19.702 -3.754 9.903 0 0 Z " fill="#000000" transform="translate(629,934)"/>
</svg>
