<?xml version="1.0" encoding="UTF-8"?>
<!-- Generator: visioncortex VTracer 0.6.12 -->
<svg version="1.1" xmlns="http://www.w3.org/2000/svg" width="1402" height="1122">
<path d="M0 0 C462.66 0 925.32 0 1402 0 C1402 370.26 1402 740.52 1402 1122 C939.34 1122 476.68 1122 0 1122 C0 751.74 0 381.48 0 0 Z M940 591 C941 593 941 593 941 593 Z M947.125 775.375 C946.424 776.241 945.722 777.107 945 778 C944.278 778.804 943.556 779.609 942.812 780.438 C937.988 787.258 938.421 794.979 939 803 C940.156 809.071 943.342 813.974 948 818 C954.263 822.139 960.633 822.917 968 822 C973.869 820.172 978.976 817.128 982.375 811.875 C983 810 983 810 983 807 C980.69 806.67 978.38 806.34 976 806 C975.484 806.928 974.969 807.856 974.438 808.812 C971.937 812.516 969.329 813.773 965 815 C959.369 815.261 955.309 813.708 951 810 C947.503 804.212 946.193 798.754 947 792 C948.247 786.997 949.717 782.307 954.188 779.375 C959.594 776.927 964.878 777.253 970.375 779.188 C973 781 973 781 974.438 783.688 C974.695 784.069 974.695 784.069 976 786 C979.688 786.312 979.688 786.312 983 786 C982.545 781.105 981.54 778.449 978 775 C968.622 768.546 956.112 767.951 947.125 775.375 Z M1002.5 775.562 C999.526 780.395 999.405 784.382 1000 790 C1002.374 794.964 1006.348 796.278 1011.262 798.105 C1013.967 798.989 1016.685 799.716 1019.438 800.438 C1022.684 801.388 1023.832 801.828 1026.25 804.312 C1027.259 807.928 1026.694 809.685 1025 813 C1021.711 815.68 1018.082 815.352 1014 815 C1009.279 813.275 1007.198 811.518 1005 807 C1004.01 807.165 1004.01 807.165 999 808 C999.263 811.773 999.752 813.687 1002.125 816.688 C1007.994 821.408 1012.844 822.595 1020.281 822.34 C1025.317 821.71 1029.187 820.264 1032.414 816.234 C1034.786 812.135 1035.613 808.546 1034.652 803.883 C1033.465 800.456 1031.873 798.124 1029 796 C1025.433 794.306 1021.779 793.131 1018 792 C1017.031 791.7 1016.061 791.399 1015.062 791.09 C1012.714 790.373 1010.361 789.676 1008 789 C1007.519 781.669 1007.519 781.669 1009.438 779 C1013.878 777.267 1018.75 777.094 1023.203 778.887 C1025.427 780.265 1026.042 781.606 1027 784 C1028.98 784 1030.96 784 1033 784 C1032.824 779.516 1032.486 777.521 1029.375 774.188 C1021.285 768.29 1009.64 768.244 1002.5 775.562 Z M370 772 C369.907 773.535 369.883 775.074 369.886 776.612 C369.887 777.593 369.887 778.573 369.887 779.584 C369.892 780.651 369.897 781.717 369.902 782.816 C369.904 783.903 369.905 784.989 369.907 786.108 C369.912 789.593 369.925 793.078 369.938 796.562 C369.943 798.919 369.947 801.275 369.951 803.631 C369.962 809.421 369.979 815.21 370 821 C372.31 821 374.62 821 377 821 C378.206 817.381 378.108 814.075 378.062 810.312 C378.058 809.611 378.053 808.909 378.049 808.186 C378.037 806.457 378.019 804.728 378 803 C378.501 803.017 378.501 803.017 381.035 803.105 C395.724 803.467 395.724 803.467 402.312 798.125 C405.606 793.978 406.41 790.308 406.25 784.988 C405.694 780.562 403.803 777.761 400.625 774.75 C396.358 771.905 392.861 770.746 387.734 770.77 C387.248 770.77 387.248 770.77 384.789 770.775 C383.786 770.788 382.783 770.8 381.75 770.812 C381.241 770.813 381.241 770.813 378.664 770.814 C371.14 770.86 371.14 770.86 370 772 Z M424 771 C424 787.5 424 804 424 821 C434.23 821 444.46 821 455 821 C455 819.02 455 817.04 455 815 C447.08 815 439.16 815 431 815 C431 800.48 431 785.96 431 771 C428.69 771 426.38 771 424 771 Z M472 771 C471.925 775.677 471.871 780.354 471.835 785.032 C471.82 786.62 471.8 788.207 471.774 789.795 C471.458 809.443 471.458 809.443 476.648 816.121 C477.218 816.556 477.788 816.99 478.375 817.438 C478.94 817.89 479.504 818.342 480.086 818.809 C485.894 822.424 491.321 822.614 498 822 C503.116 820.778 506.731 818.086 510 814 C512.668 808.64 513.433 803.741 513.328 797.816 C513.326 797.075 513.324 796.334 513.322 795.571 C513.316 794.022 513.302 792.474 513.281 790.925 C513.25 788.544 513.24 786.164 513.234 783.783 C513.225 782.273 513.215 780.764 513.203 779.254 C513.199 778.54 513.195 777.827 513.19 777.092 C513.117 772.117 513.117 772.117 512 771 C510 770.959 508 770.957 506 771 C505.985 771.958 505.971 772.916 505.956 773.902 C505.897 777.488 505.82 781.074 505.738 784.66 C505.704 786.205 505.676 787.751 505.654 789.297 C505.405 805.696 505.405 805.696 502 812 C498.254 814.424 495.265 815.253 490.875 814.938 C486.746 813.938 484.858 813.11 482 810 C480.087 805.408 479.668 801.112 479.586 796.195 C479.576 795.833 479.576 795.833 479.527 794.001 C479.468 791.709 479.421 789.417 479.375 787.125 C479.337 785.562 479.298 784 479.258 782.438 C479.162 778.625 479.078 774.813 479 771 C476.69 771 474.38 771 472 771 Z M530 771 C530.641 776.787 532.701 781.838 534.816 787.211 C535.192 788.179 535.568 789.147 535.956 790.145 C537.152 793.224 538.357 796.299 539.562 799.375 C540.377 801.467 541.192 803.56 542.006 805.652 C543.998 810.771 545.996 815.886 548 821 C550.64 821 553.28 821 556 821 C559.96 811.675 563.685 802.265 567.359 792.824 C568.325 790.343 569.296 787.865 570.268 785.387 C570.883 783.807 571.498 782.228 572.113 780.648 C572.259 780.279 572.259 780.279 572.994 778.408 C575 773.229 575 773.229 575 771 C572.36 771 569.72 771 567 771 C566.617 772.039 566.233 773.079 565.838 774.149 C564.413 778.012 562.985 781.873 561.556 785.734 C560.938 787.404 560.321 789.074 559.705 790.745 C558.819 793.148 557.929 795.551 557.039 797.953 C556.902 798.326 556.902 798.326 556.209 800.211 C554.962 803.566 553.705 806.848 552 810 C551.581 808.854 551.162 807.708 550.731 806.528 C549.181 802.291 547.628 798.055 546.073 793.82 C545.4 791.984 544.728 790.147 544.057 788.311 C543.094 785.676 542.127 783.043 541.16 780.41 C540.859 779.584 540.558 778.758 540.248 777.907 C538.114 772.114 538.114 772.114 537 771 C534.667 770.959 532.333 770.958 530 771 Z M592 771 C592 787.5 592 804 592 821 C594.31 821 596.62 821 599 821 C599 804.5 599 788 599 771 C596.69 771 594.38 771 592 771 Z M624 778 C618.772 785.054 617.252 792.348 618 801 C619.308 808.069 622.564 813.315 628 818 C634.258 822.192 640.621 822.876 648 822 C654.56 820.693 659.695 817.057 664 812 C668.462 804.643 669.138 796.898 667.527 788.551 C665.531 781.51 661.659 776.238 655.25 772.625 C644.13 767.702 632.921 769.979 624 778 Z M687 771 C687 787.5 687 804 687 821 C689.31 821 691.62 821 694 821 C694.33 809.12 694.66 797.24 695 785 C701.438 798.938 701.438 798.938 703.467 803.34 C703.992 804.474 704.517 805.609 705.059 806.777 C705.598 807.945 706.137 809.113 706.693 810.316 C708 813 708 813 709 814 C711 814.041 713 814.043 715 814 C716.211 811.606 717.419 809.209 718.625 806.812 C718.791 806.485 718.791 806.485 719.629 804.83 C722.918 798.283 725.923 791.666 729 785 C729.165 790.94 729.165 790.94 730 821 C731.98 821 733.96 821 736 821 C736.899 818.303 737.126 816.757 737.129 813.991 C737.131 813.59 737.131 813.59 737.139 811.563 C737.137 810.7 737.135 809.838 737.133 808.949 C737.134 808.058 737.135 807.166 737.136 806.248 C737.136 804.36 737.135 802.473 737.13 800.586 C737.125 797.709 737.13 794.832 737.137 791.955 C737.136 790.12 737.135 788.285 737.133 786.449 C737.135 785.593 737.137 784.736 737.139 783.854 C737.122 779.456 736.884 775.33 736 771 C733.03 771 730.06 771 727 771 C725.16 775.035 723.327 779.074 721.501 783.115 C720.879 784.489 720.255 785.861 719.63 787.233 C718.729 789.209 717.834 791.188 716.941 793.168 C716.402 794.357 715.863 795.545 715.307 796.77 C714.178 799.561 713.452 802.036 713 805 C712.34 805 711.68 805 711 805 C710.621 803.773 710.242 802.546 709.852 801.281 C707.807 795.151 705.096 789.354 702.375 783.5 C701.872 782.404 701.37 781.309 700.852 780.18 C697.142 772.142 697.142 772.142 696 771 C693.03 771 690.06 771 687 771 Z M758 771 C758 787.5 758 804 758 821 C768.56 821 779.12 821 790 821 C790 819.02 790 817.04 790 815 C781.75 815 773.5 815 765 815 C765 809.72 765 804.44 765 799 C772.26 799 779.52 799 787 799 C787 797.02 787 795.04 787 793 C779.74 793 772.48 793 765 793 C765 788.05 765 783.1 765 778 C772.92 778 780.84 778 789 778 C789 775.69 789 773.38 789 771 C778.77 771 768.54 771 758 771 Z M804 772 C803.959 773.666 803.957 775.334 804 777 C804.495 777.082 804.495 777.082 807 777.5 C807.557 777.593 808.114 777.686 808.688 777.781 C812.11 778.105 815.562 778 819 778 C819 792.19 819 806.38 819 821 C821.31 821 823.62 821 826 821 C826.33 806.81 826.66 792.62 827 778 C831.95 777.67 836.9 777.34 842 777 C842 775.35 842 773.7 842 772 C840.212 770.212 837.804 770.872 835.424 770.861 C834.644 770.863 833.865 770.865 833.062 770.867 C832.267 770.866 831.472 770.865 830.653 770.864 C828.968 770.864 827.283 770.865 825.599 770.87 C823.011 770.875 820.424 770.87 817.836 770.863 C816.203 770.864 814.57 770.865 812.938 770.867 C812.158 770.865 811.379 770.863 810.576 770.861 C805.115 770.885 805.115 770.885 804 772 Z M858 771 C858 787.5 858 804 858 821 C860.31 821 862.62 821 865 821 C865 814.73 865 808.46 865 802 C868.63 802 872.26 802 876 802 C876.66 803.65 877.32 805.3 878 807 C879.256 809.512 880.678 811.906 882.125 814.312 C882.478 814.958 882.831 815.603 883.195 816.268 C884.32 818.113 884.32 818.113 887 821 C889.885 821.574 892.027 821.336 895 821 C891.535 814.523 887.967 808.184 884 802 C884.554 801.553 885.109 801.105 885.68 800.645 C890.977 796.224 893.671 793.615 894.312 786.562 C893.84 781.18 892.079 777.736 888.062 774.188 C879.128 767.806 869.501 771 858 771 Z M913 771 C913 787.5 913 804 913 821 C915.31 821 917.62 821 920 821 C920 804.5 920 788 920 771 C917.69 771 915.38 771 913 771 Z M430 860 C431 862 431 862 431 862 Z M441 860 C442 862 442 862 442 862 Z M514 860 C515 862 515 862 515 862 Z M640 860 C641 862 641 862 641 862 Z M666 860 C666.33 860.66 666.66 861.32 667 862 C667.33 861.34 667.66 860.68 668 860 C667.34 860 666.68 860 666 860 Z M724 860 C725 862 725 862 725 862 Z M776 860 C776 863.63 776 867.26 776 871 C776.33 871 776.66 871 777 871 C777 867.37 777 863.74 777 860 C776.67 860 776.34 860 776 860 Z M802 860 C803 862 803 862 803 862 Z M836 860 C837 862 837 862 837 862 Z M858 860 C858.33 861.65 858.66 863.3 859 865 C859.33 865 859.66 865 860 865 C860 863.35 860 861.7 860 860 C859.34 860 858.68 860 858 860 Z M879 860 C879 863.96 879 867.92 879 872 C879.33 872 879.66 872 880 872 C880 868.04 880 864.08 880 860 C879.67 860 879.34 860 879 860 Z M899 860 C899 866.27 899 872.54 899 879 C899.33 879 899.66 879 900 879 C900.33 872.73 900.66 866.46 901 860 C900.34 860 899.68 860 899 860 Z M973 860 C973 860.66 973 861.32 973 862 C973.66 862 974.32 862 975 862 C975 861.34 975 860.68 975 860 C974.34 860 973.68 860 973 860 Z M623 862 C624 864 624 864 624 864 Z M819 862 C819 867.61 819 873.22 819 879 C819.33 879 819.66 879 820 879 C820 873.39 820 867.78 820 862 C819.67 862 819.34 862 819 862 Z M1000 863 C1001 865 1001 865 1001 865 Z M624 864 C625 867 625 867 625 867 Z M793 865 C794 867 794 867 794 867 Z M911 868 C911 869.98 911 871.96 911 874 C911.33 874 911.66 874 912 874 C912 872.02 912 870.04 912 868 C911.67 868 911.34 868 911 868 Z M432 869 C432 869.33 432 869.66 432 870 C434.97 870 437.94 870 441 870 C441 869.67 441 869.34 441 869 C438.03 869 435.06 869 432 869 Z M841 869 C841 869.33 841 869.66 841 870 C842.98 870 844.96 870 847 870 C847 869.67 847 869.34 847 869 C845.02 869 843.04 869 841 869 Z M941 869 C941 869.33 941 869.66 941 870 C943.64 870 946.28 870 949 870 C949 869.67 949 869.34 949 869 C946.36 869 943.72 869 941 869 Z M1016 869 C1016 869.33 1016 869.66 1016 870 C1017.98 870 1019.96 870 1022 870 C1022 869.67 1022 869.34 1022 869 C1020.02 869 1018.04 869 1016 869 Z " fill="#000000" transform="translate(0,0)"/>
<path d="M0 0 C5.139 0.053 9.189 0.559 13.625 3.312 C15.568 6.38 15.924 9.632 15.812 13.188 C14.555 16.401 13.693 17.735 10.621 19.312 C7.283 20.352 4.49 20.383 1 20.312 C-0.161 20.294 -1.323 20.276 -2.52 20.258 C-3.4 20.235 -4.28 20.211 -5.188 20.188 C-6.836 16.891 -6.33 13.244 -6.312 9.625 C-6.316 8.832 -6.32 8.038 -6.324 7.221 C-6.312 0.043 -6.312 0.043 0 0 Z " fill="#000000" transform="translate(383.1875,776.8125)"/>
<path d="M0 0 C5.671 3.956 7.792 7.019 9.125 13.75 C10.016 20.608 9.232 25.052 5.875 31.188 C2.508 35.324 -0.421 36.901 -5.625 37.75 C-10.41 38.116 -14.212 37.425 -18.312 34.875 C-22.415 31.093 -25.074 27.73 -25.551 22.02 C-25.705 15.097 -25.627 9.525 -21.312 3.875 C-15.231 -1.91 -7.84 -2.663 0 0 Z " fill="#000000" transform="translate(651.3125,778.125)"/>
<path d="M0 0 C5.005 0.052 9.383 0.258 13.445 3.484 C15.628 6.203 15.22 8.665 15.105 12.027 C14.724 14.841 13.934 16.302 11.812 18.188 C8.194 19.394 4.887 19.296 1.125 19.25 C0.423 19.245 -0.279 19.241 -1.002 19.236 C-2.731 19.225 -4.459 19.207 -6.188 19.188 C-6.214 16.208 -6.234 13.229 -6.25 10.25 C-6.258 9.4 -6.267 8.55 -6.275 7.674 C-6.279 6.865 -6.282 6.056 -6.285 5.223 C-6.29 4.474 -6.296 3.725 -6.301 2.953 C-6.056 -0.864 -3.179 0.021 0 0 Z " fill="#000000" transform="translate(871.1875,776.8125)"/>
</svg>
