<?xml version="1.0" encoding="UTF-8"?>
<!-- Generator: visioncortex VTracer 0.6.12 -->
<svg version="1.1" xmlns="http://www.w3.org/2000/svg" width="1402" height="1122">
<path d="M0 0 C462.66 0 925.32 0 1402 0 C1402 370.26 1402 740.52 1402 1122 C939.34 1122 476.68 1122 0 1122 C0 751.74 0 381.48 0 0 Z M523 866 C517.402 875.49 517.915 889.386 520 900 C522.266 905.697 525.587 909.058 531 912 C534.43 913.143 537.199 913.204 540.812 913.25 C541.414 913.263 541.414 913.263 544.457 913.328 C550.823 912.739 554.947 909.82 559 905 C562.472 898.742 562.453 893.057 562.375 886 C562.387 884.946 562.398 883.891 562.41 882.805 C562.382 875.29 561.619 870.201 556.75 864.25 C550.923 859.483 546.11 858.488 538.715 858.711 C532.541 859.368 527.424 861.576 523 866 Z M603.562 864.562 C600.482 869.368 600.41 873.363 601 879 C602.818 883.269 604.854 885.173 608.938 887.125 C613.973 889.134 619.172 890.656 624.375 892.168 C627 893 627 893 628 894 C628.467 900.306 628.467 900.306 626.855 902.699 C624.229 904.541 622.244 904.434 619.062 904.438 C618.022 904.457 616.982 904.476 615.91 904.496 C612.334 903.886 611.203 902.827 609 900 C608.835 899.505 608.835 899.505 608 897 C605.36 897.33 602.72 897.66 600 898 C600.413 903.262 601.119 906.324 605 910 C611.423 914.049 618.607 913.784 626 913 C630.389 911.643 633.962 909.476 637 906 C638.805 900.584 638.842 894.473 637 889.062 C630.382 882.238 619.908 881.033 611 879 C610.919 877.543 610.861 876.084 610.812 874.625 C610.778 873.813 610.743 873.001 610.707 872.164 C610.804 871.45 610.9 870.736 611 870 C615.225 867.184 619.037 867.322 624 868 C626.438 869.812 626.438 869.812 628 872 C629.375 873.812 629.375 873.812 631 875 C634.188 874.688 634.188 874.688 637 874 C637.482 869.948 637.189 868.292 634.938 864.812 C630.472 860.074 625.886 858.835 619.562 858.625 C613.198 858.826 608.115 859.777 603.562 864.562 Z M700.348 868.062 C696.7 873.307 697.696 880.069 697.625 886.188 C697.588 887.395 697.55 888.602 697.512 889.846 C697.44 897.145 697.915 902.486 703 908 C710.269 913.67 717.041 913.695 726 913 C731.645 911.549 734.892 908.55 738.09 903.781 C740.86 898.359 740.259 892.179 740.312 886.25 C740.342 885.19 740.371 884.131 740.4 883.039 C740.459 875.766 739.638 870.01 734.623 864.482 C729.181 859.552 723.615 858.56 716.52 858.762 C709.029 859.47 705.113 862.331 700.348 868.062 Z M877 866 C873.334 872.45 873.517 878.645 873.562 885.938 C873.543 887.079 873.523 888.22 873.502 889.396 C873.506 896.412 874.207 901.053 878 907 C882.911 911.785 887.592 913.288 894.375 913.312 C900.626 913.186 905.074 912.88 909.715 908.312 C914.351 903.077 915.14 899.854 915.062 892.875 C915.042 890.276 915.021 887.678 915 885 C908.4 885 901.8 885 895 885 C895 887.31 895 889.62 895 892 C898.63 892.33 902.26 892.66 906 893 C904.523 901.619 904.523 901.619 902.266 903.266 C897.922 904.673 893.499 904.574 889 904 C886.344 902.103 885.428 900.855 884 898 C883.731 894.068 883.768 890.127 883.75 886.188 C883.729 885.094 883.709 884 883.688 882.873 C883.682 881.815 883.677 880.758 883.672 879.668 C883.663 878.701 883.653 877.735 883.644 876.739 C884.068 873.476 885.025 871.616 887 869 C891.342 867.553 895.467 867.341 900 868 C903.158 870.435 904.8 872.7 907 876 C910.625 876.188 910.625 876.188 914 876 C915 874 915 874 913.938 870.188 C911.766 864.749 908.552 862.218 903.25 859.688 C893.685 857.664 884.08 858.718 877 866 Z M1038.062 865.625 C1033.56 872.993 1033.707 881.35 1034.188 889.75 C1034.219 890.656 1034.251 891.562 1034.283 892.496 C1034.59 898.585 1035.436 903.221 1039.719 907.863 C1040.013 908.102 1040.013 908.102 1041.5 909.312 C1042.088 909.804 1042.676 910.295 1043.281 910.801 C1048.551 914.478 1055.9 913.48 1062 913 C1067.987 911.378 1071.5 907.985 1075 903 C1076.207 899.379 1076.108 896.075 1076.062 892.312 C1076.042 889.899 1076.021 887.486 1076 885 C1069.4 885 1062.8 885 1056 885 C1056 887.31 1056 889.62 1056 892 C1059.63 892 1063.26 892 1067 892 C1065.528 900.465 1065.528 900.465 1063.262 902.762 C1060.531 904.257 1058.667 904.466 1055.562 904.5 C1054.636 904.531 1053.709 904.562 1052.754 904.594 C1048.613 903.701 1047.376 902.536 1045 899 C1044.313 894.819 1044.394 890.727 1044.5 886.5 C1044.499 885.936 1044.499 885.936 1044.492 883.082 C1044.606 873.506 1044.606 873.506 1048 869 C1050.771 868.076 1052.567 867.837 1055.438 867.812 C1056.199 867.798 1056.961 867.784 1057.746 867.77 C1060.305 868.031 1061.845 868.602 1064 870 C1065.75 873.125 1065.75 873.125 1067 876 C1069.64 876 1072.28 876 1075 876 C1075.615 870.957 1074.441 868.396 1071.43 864.543 C1067.796 860.622 1063.699 859.259 1058.52 858.762 C1050.188 858.533 1044.341 860.015 1038.062 865.625 Z M288 860 C288 877.49 288 894.98 288 913 C290.64 912.67 293.28 912.34 296 912 C296 906.06 296 900.12 296 894 C297.98 894.041 299.96 894.082 302 894.125 C308.818 894.103 314.715 893.971 320.375 889.75 C324.311 885.626 325.08 882.049 325.312 876.5 C325.174 871.649 324.075 868.092 320.57 864.559 C310.706 855.945 303.722 860 288 860 Z M339 860 C338.975 867.387 338.957 874.775 338.945 882.162 C338.94 884.677 338.933 887.192 338.925 889.708 C338.912 893.314 338.907 896.921 338.902 900.527 C338.897 901.66 338.892 902.792 338.887 903.958 C338.887 904.999 338.887 906.04 338.886 907.113 C338.884 908.035 338.882 908.956 338.88 909.906 C339 912 339 912 340 913 C342.376 913.088 344.722 913.115 347.098 913.098 C347.807 913.096 348.515 913.095 349.246 913.093 C351.518 913.088 353.79 913.075 356.062 913.062 C357.6 913.057 359.137 913.053 360.674 913.049 C364.449 913.038 368.225 913.021 372 913 C372 910.36 372 907.72 372 905 C364.08 905 356.16 905 348 905 C348.012 901.835 348.023 898.671 348.035 895.41 C348.043 892.359 348.049 889.307 348.055 886.256 C348.06 884.129 348.067 882.002 348.075 879.874 C348.088 876.824 348.093 873.773 348.098 870.723 C348.1 870.244 348.1 870.244 348.113 867.822 C348.113 866.941 348.113 866.06 348.114 865.153 C348.115 864.763 348.115 864.763 348.12 862.791 C348 861 348 861 347 860 C344.329 859.859 341.676 859.958 339 860 Z M383 860 C382.901 865.55 382.828 871.1 382.78 876.65 C382.76 878.536 382.733 880.421 382.698 882.307 C382.649 885.027 382.627 887.748 382.609 890.469 C382.589 891.302 382.568 892.136 382.547 892.995 C382.545 898.749 383.658 903.239 387 908 C392.256 912.184 396.192 913.165 402.812 913.25 C403.414 913.263 403.414 913.263 406.457 913.328 C411.86 912.828 414.989 911.034 418.75 907.188 C422.91 901.293 423.285 896.068 423.195 889.102 C423.194 888.684 423.194 888.684 423.187 886.571 C423.176 883.922 423.151 881.274 423.125 878.625 C423.115 876.822 423.106 875.018 423.098 873.215 C423.076 868.81 423.041 864.405 423 860 C420.03 860 417.06 860 414 860 C413.998 860.578 413.998 860.578 413.988 863.501 C413.966 867.797 413.911 872.092 413.847 876.388 C413.824 878.245 413.81 880.103 413.804 881.96 C413.795 884.634 413.754 887.307 413.707 889.98 C413.709 890.394 413.709 890.394 413.719 892.487 C413.61 896.804 413.381 898.515 410.628 902.024 C406.817 904.89 404.147 904.643 399.535 904.426 C397 904 397 904 394.375 902.25 C391.6 897.709 391.797 892.931 391.684 887.734 C391.663 886.941 391.642 886.148 391.621 885.33 C391.555 882.804 391.496 880.277 391.438 877.75 C391.394 876.034 391.351 874.318 391.307 872.602 C391.2 868.401 391.098 864.201 391 860 C388.36 860 385.72 860 383 860 Z M436 860 C436.688 865.377 438.299 870.244 440.055 875.344 C440.206 875.787 440.206 875.787 440.97 878.033 C441.609 879.903 442.249 881.772 442.892 883.64 C443.871 886.488 444.84 889.34 445.809 892.191 C446.432 894.013 447.055 895.835 447.68 897.656 C447.967 898.503 448.255 899.35 448.551 900.223 C450.087 904.665 451.776 908.842 454 913 C456.97 913 459.94 913 463 913 C465.669 906.414 468.227 899.797 470.672 893.125 C470.999 892.234 471.326 891.343 471.664 890.425 C472.347 888.563 473.029 886.701 473.71 884.838 C474.758 881.978 475.811 879.12 476.863 876.262 C477.529 874.445 478.194 872.629 478.859 870.812 C479.175 869.957 479.49 869.102 479.816 868.221 C479.959 867.827 479.959 867.827 480.687 865.832 C480.941 865.138 481.195 864.445 481.457 863.73 C482 862 482 862 482 860 C479.03 860 476.06 860 473 860 C469.124 868.105 466.45 876.517 463.75 885.062 C463.287 886.515 462.823 887.968 462.359 889.42 C461.234 892.945 460.115 896.472 459 900 C457.017 894.765 455.111 889.515 453.301 884.219 C453.061 883.52 452.821 882.821 452.574 882.101 C451.819 879.901 451.066 877.7 450.312 875.5 C449.796 873.995 449.28 872.49 448.764 870.984 C447.508 867.323 446.254 863.662 445 860 C442.03 860 439.06 860 436 860 Z M495 860 C495 877.16 495 894.32 495 912 C497.945 912.982 499.935 913.161 503 913 C504 912 504 912 504.12 909.906 C504.118 908.984 504.116 908.063 504.114 907.113 C504.113 906.072 504.113 905.031 504.113 903.958 C504.108 902.826 504.103 901.694 504.098 900.527 C504.096 899.375 504.095 898.222 504.093 897.034 C504.088 893.335 504.075 889.636 504.062 885.938 C504.057 883.437 504.053 880.936 504.049 878.436 C504.038 872.29 504.021 866.145 504 860 C501.03 860 498.06 860 495 860 Z M648 860 C646.651 862.698 647.197 864.152 648 867 C652.78 869.39 658.656 868 664 868 C664 882.52 664 897.04 664 912 C666 913 666 913 672 913 C672 898.15 672 883.3 672 868 C676.95 868 681.9 868 687 868 C687.33 867.67 687.66 867.34 688 867 C688 864.69 688 862.38 688 860 C674.8 860 661.6 860 648 860 Z M755 860 C754.975 867.387 754.957 874.775 754.945 882.162 C754.94 884.677 754.933 887.192 754.925 889.708 C754.912 893.314 754.907 896.921 754.902 900.527 C754.897 901.66 754.892 902.792 754.887 903.958 C754.887 904.999 754.887 906.04 754.886 907.113 C754.884 908.035 754.882 908.956 754.88 909.906 C755 912 755 912 756 913 C759.5 913.125 759.5 913.125 763 913 C764 912 764 912 764.114 910.051 C764.108 909.218 764.103 908.385 764.098 907.527 C764.094 906.628 764.091 905.729 764.088 904.803 C764.08 903.857 764.071 902.912 764.062 901.938 C764.058 900.988 764.053 900.039 764.049 899.061 C764.037 896.707 764.019 894.353 764 892 C767.3 892 770.6 892 774 892 C774.246 892.665 774.492 893.33 774.746 894.016 C776.303 897.721 778.158 901.214 780.062 904.75 C780.427 905.434 780.791 906.119 781.166 906.824 C783.867 911.867 783.867 911.867 785 913 C786.519 913.072 788.042 913.084 789.562 913.062 C790.389 913.053 791.215 913.044 792.066 913.035 C792.704 913.024 793.343 913.012 794 913 C792.574 908.105 790.474 904.084 787.875 899.75 C784 893.26 784 893.26 784 891 C784.464 890.711 784.464 890.711 786.812 889.25 C790.493 886.652 791.583 885.252 793 881 C793.654 876.112 793.673 871.606 791.438 867.125 C788.66 863.564 786.247 861.444 782 860 C777.342 859.522 772.739 859.622 768.062 859.75 C767.434 859.759 767.434 859.759 764.256 859.805 C761.17 859.852 758.085 859.921 755 860 Z M808 860 C807.975 867.387 807.957 874.775 807.945 882.162 C807.94 884.677 807.933 887.192 807.925 889.708 C807.912 893.314 807.907 896.921 807.902 900.527 C807.897 901.66 807.892 902.792 807.887 903.958 C807.887 904.999 807.887 906.04 807.886 907.113 C807.884 908.035 807.882 908.956 807.88 909.906 C808 912 808 912 809 913 C811.31 913 813.62 913 816 913 C816.33 901.12 816.66 889.24 817 877 C822.812 889.937 822.812 889.937 824.628 894.023 C825.108 895.076 825.588 896.13 826.082 897.215 C826.569 898.299 827.056 899.383 827.558 900.5 C829 903 829 903 832 904 C834.525 903.847 834.525 903.847 837 903 C838.454 901.022 838.454 901.022 839.605 898.449 C840.032 897.523 840.458 896.597 840.896 895.643 C841.323 894.667 841.749 893.692 842.188 892.688 C842.625 891.724 843.063 890.76 843.514 889.768 C844.329 887.971 845.137 886.171 845.934 884.366 C846.904 882.213 847.928 880.103 849 878 C849.025 879.025 849.05 880.049 849.076 881.105 C849.17 884.894 849.27 888.683 849.372 892.471 C849.416 894.114 849.457 895.756 849.497 897.398 C849.555 899.754 849.619 902.109 849.684 904.465 C849.7 905.203 849.717 905.942 849.734 906.703 C849.886 911.886 849.886 911.886 851 913 C854.5 913.125 854.5 913.125 858 913 C859.641 911.359 859.127 909.482 859.129 907.221 C859.131 906.712 859.131 906.712 859.139 904.137 C859.137 903.029 859.135 901.922 859.133 900.781 C859.134 899.653 859.135 898.525 859.136 897.362 C859.136 894.972 859.135 892.581 859.13 890.19 C859.125 886.516 859.13 882.842 859.137 879.168 C859.136 876.852 859.135 874.535 859.133 872.219 C859.135 871.111 859.137 870.004 859.139 868.863 C859.136 867.846 859.133 866.828 859.129 865.779 C859.129 864.879 859.128 863.978 859.127 863.05 C859 861 859 861 858 860 C856.481 859.928 854.958 859.916 853.438 859.938 C852.611 859.947 851.785 859.956 850.934 859.965 C850.615 859.971 850.615 859.971 849 860 C843.408 870.11 838.478 880.35 834 891 C831.518 887.92 829.81 884.781 828.117 881.211 C827.59 880.105 827.063 878.999 826.52 877.859 C825.977 876.71 825.434 875.56 824.875 874.375 C824.325 873.217 823.774 872.06 823.207 870.867 C822.192 868.732 821.178 866.596 820.167 864.458 C819.459 862.966 818.739 861.478 818 860 C814.7 860 811.4 860 808 860 Z M942 860 C939.9 866.014 937.8 872.028 935.701 878.042 C934.987 880.087 934.274 882.131 933.56 884.176 C932.532 887.12 931.504 890.064 930.477 893.008 C930.159 893.917 929.841 894.827 929.514 895.764 C928.927 897.445 928.343 899.127 927.761 900.81 C927.115 902.67 926.451 904.523 925.783 906.375 C925 909 925 909 925 913 C928.312 913.312 928.312 913.312 932 913 C933.812 910.812 933.812 910.812 935 908 C935.196 907.567 935.196 907.567 936.188 905.375 C937 903 937 903 937 900 C943.93 900 950.86 900 958 900 C958.66 902.97 959.32 905.94 960 909 C960.66 910.32 961.32 911.64 962 913 C964.64 913 967.28 913 970 913 C969.382 906.922 967.657 901.518 965.656 895.762 C965.492 895.281 965.492 895.281 964.659 892.847 C963.612 889.792 962.556 886.74 961.5 883.688 C960.79 881.617 960.08 879.546 959.371 877.475 C958.696 875.508 958.02 873.541 957.344 871.574 C957.024 870.644 956.704 869.714 956.375 868.756 C956.226 868.326 956.226 868.326 955.475 866.155 C955.213 865.399 954.952 864.643 954.683 863.864 C954 862 954 862 953 860 C949.37 860 945.74 860 942 860 Z M980 860 C979.926 865.587 979.871 871.173 979.835 876.76 C979.82 878.659 979.8 880.558 979.774 882.458 C979.737 885.193 979.72 887.928 979.707 890.664 C979.692 891.508 979.676 892.352 979.66 893.222 C979.658 899.093 980.594 903.391 984.719 907.863 C985.013 908.102 985.013 908.102 986.5 909.312 C987.088 909.804 987.676 910.295 988.281 910.801 C993.333 914.325 1000.143 913.498 1006 913 C1011.356 911.455 1015.04 908.781 1018 904 C1020.12 898.924 1020.265 894.501 1020.195 889.102 C1020.194 888.684 1020.194 888.684 1020.187 886.571 C1020.176 883.922 1020.151 881.274 1020.125 878.625 C1020.115 876.822 1020.106 875.018 1020.098 873.215 C1020.076 868.81 1020.041 864.405 1020 860 C1017.03 860 1014.06 860 1011 860 C1010.998 860.578 1010.998 860.578 1010.988 863.501 C1010.966 867.797 1010.911 872.092 1010.847 876.388 C1010.824 878.245 1010.81 880.103 1010.804 881.96 C1010.795 884.634 1010.754 887.307 1010.707 889.98 C1010.709 890.394 1010.709 890.394 1010.719 892.487 C1010.61 896.814 1010.385 898.512 1007.612 902.022 C1004.774 904.171 1003.512 904.68 1000 904.625 C999.175 904.638 998.35 904.651 997.5 904.664 C993.775 903.675 992.381 902.014 990 899 C989.269 895.993 989.278 893.064 989.293 889.98 C989.278 889.122 989.263 888.263 989.247 887.379 C989.204 884.648 989.195 881.918 989.188 879.188 C989.164 877.331 989.139 875.475 989.111 873.619 C989.049 869.079 989.016 864.54 989 860 C986.03 860 983.06 860 980 860 Z M1091 860 C1090.977 867.387 1090.957 874.775 1090.945 882.162 C1090.94 884.677 1090.933 887.192 1090.925 889.708 C1090.912 893.314 1090.907 896.921 1090.902 900.527 C1090.897 901.66 1090.892 902.792 1090.887 903.958 C1090.887 904.999 1090.887 906.04 1090.886 907.113 C1090.884 908.035 1090.882 908.956 1090.88 909.906 C1091 912 1091 912 1092 913 C1094.376 913.088 1096.722 913.115 1099.098 913.098 C1099.807 913.096 1100.515 913.095 1101.246 913.093 C1103.518 913.088 1105.79 913.075 1108.062 913.062 C1109.6 913.057 1111.137 913.053 1112.674 913.049 C1116.449 913.038 1120.225 913.021 1124 913 C1124 910.36 1124 907.72 1124 905 C1116.08 904.67 1108.16 904.34 1100 904 C1099.67 899.38 1099.34 894.76 1099 890 C1106.26 890 1113.52 890 1121 890 C1121 887.36 1121 884.72 1121 882 C1114.07 881.67 1107.14 881.34 1100 881 C1099.67 876.71 1099.34 872.42 1099 868 C1107.25 868 1115.5 868 1124 868 C1124 865.36 1124 862.72 1124 860 C1113.11 860 1102.22 860 1091 860 Z " fill="#000000" transform="translate(0,0)"/>
<path d="M0 0 C3.093 1.556 5.488 3.496 6.642 6.885 C7.318 10.879 7.185 14.896 7.188 18.938 C7.2 19.831 7.212 20.725 7.225 21.646 C7.238 27.501 6.948 31.675 3.062 36.312 C-1.538 38.848 -5.861 38.779 -11 38 C-14.617 35.902 -15.683 34.951 -17 31 C-17.259 27.046 -17.231 23.087 -17.25 19.125 C-17.271 18.036 -17.291 16.946 -17.312 15.824 C-17.318 14.771 -17.323 13.718 -17.328 12.633 C-17.337 11.673 -17.347 10.712 -17.356 9.723 C-16.934 6.496 -15.885 4.63 -14 2 C-9.775 -0.884 -4.917 -0.767 0 0 Z " fill="#000000" transform="translate(546,867)"/>
<path d="M0 0 C3.622 1.887 5.689 4.068 7 8 C7.256 11.6 7.231 15.205 7.25 18.812 C7.271 19.798 7.291 20.783 7.312 21.799 C7.342 27.229 7.275 31.419 4 36 C-0.302 39.147 -5.922 38.632 -11 38 C-14.002 36.199 -15.452 35.097 -17 32 C-17.27 27.901 -17.232 23.794 -17.25 19.688 C-17.271 18.546 -17.291 17.405 -17.312 16.229 C-17.315 15.677 -17.315 15.677 -17.328 12.887 C-17.333 12.382 -17.333 12.382 -17.356 9.831 C-16.942 6.537 -15.931 4.675 -14 2 C-9.778 -0.882 -4.913 -0.774 0 0 Z " fill="#000000" transform="translate(724,867)"/>
<path d="M0 0 C1.279 -0.052 1.279 -0.052 7.75 -0.312 C8.549 -0.358 9.348 -0.404 10.171 -0.45 C13.978 -0.525 15.64 -0.33 18.48 2.27 C19.889 4.8 20.568 6.154 20.562 9 C20.584 9.639 20.606 10.279 20.629 10.938 C19.586 14.356 17.802 15.846 15 18 C12.116 18.374 10.017 18.487 7.188 18.312 C4.816 18.209 2.444 18.106 0 18 C0 12.06 0 6.12 0 0 Z " fill="#000000" transform="translate(296,868)"/>
<path d="M0 0 C1.279 -0.041 1.279 -0.041 7.75 -0.25 C8.549 -0.286 9.348 -0.323 10.171 -0.36 C13.635 -0.414 15.633 -0.261 18.484 1.766 C20.52 4.767 20.572 6.57 20.395 10.098 C19.786 13.031 18.389 14.294 16 16 C10.836 17.721 5.407 17.054 0 17 C0 11.39 0 5.78 0 0 Z " fill="#000000" transform="translate(764,868)"/>
<path d="M0 0 C2.113 2.113 2.584 3.25 3.508 6.027 C3.64 6.423 3.64 6.423 4.309 8.428 C4.578 9.256 4.847 10.084 5.125 10.938 C5.402 11.762 5.679 12.586 5.965 13.436 C8 19.606 8 19.606 8 23 C3.05 23 -1.9 23 -7 23 C-5.485 15.013 -2.832 7.599 0 0 Z " fill="#000000" transform="translate(947,870)"/>
</svg>
